<?xml version="1.0" standalone="no"?>
<!DOCTYPE svg PUBLIC "-//W3C//DTD SVG 20010904//EN"
 "http://www.w3.org/TR/2001/REC-SVG-20010904/DTD/svg10.dtd">
<svg version="1.0" xmlns="http://www.w3.org/2000/svg"
 width="500.000000pt" height="500.000000pt" viewBox="0 0 500.000000 500.000000"
 preserveAspectRatio="xMidYMid meet">

<g transform="translate(0.000000,500.000000) scale(0.100000,-0.100000)"
fill="#000000" stroke="none">
<path d="M0 2500 l0 -2500 2500 0 2500 0 0 2500 0 2500 -2500 0 -2500 0 0
-2500z m1243 483 c54 -27 67 -65 67 -199 l0 -122 123 -4 c136 -4 166 -15 205
-72 43 -63 19 -162 -48 -200 -28 -16 -57 -21 -157 -24 l-123 -4 0 -123 c0
-111 -2 -125 -23 -156 -42 -63 -130 -82 -195 -43 -55 32 -72 83 -72 212 l0
112 -97 0 c-120 0 -167 12 -209 54 -66 66 -48 183 35 225 34 18 59 21 156 21
l115 0 0 93 c0 123 7 160 39 197 46 55 116 68 184 33z m850 -83 c49 -52 49
-70 -1 -70 -28 0 -45 7 -62 25 -32 34 -91 35 -125 1 -45 -45 -45 -147 0 -192
34 -34 93 -33 125 1 17 18 34 25 62 25 43 0 48 -12 21 -50 -28 -40 -55 -58
-103 -69 -124 -27 -220 56 -220 189 0 99 55 176 137 189 68 12 124 -4 166 -49z
m1722 26 c55 -36 84 -121 71 -210 -14 -93 -80 -149 -175 -149 -71 0 -113 21
-149 75 -52 79 -32 228 39 280 50 38 160 40 214 4z m-1385 -11 l0 -35 -85 0
-85 0 0 -40 0 -40 80 0 80 0 0 -35 0 -35 -80 0 -80 0 0 -45 0 -45 90 0 90 0 0
-35 0 -35 -130 0 -130 0 0 190 0 190 125 0 125 0 0 -35z m236 -91 l69 -127 3
127 3 126 39 0 40 0 0 -191 0 -190 -52 3 -53 3 -70 127 -70 127 -3 -130 -3
-129 -39 0 -40 0 0 190 0 190 53 0 54 0 69 -126z m504 91 l0 -34 -57 -3 -58
-3 -3 -152 -3 -153 -39 0 -40 0 0 155 0 155 -55 0 -55 0 0 35 0 35 155 0 155
0 0 -35z m255 21 c40 -17 65 -60 65 -111 0 -44 -14 -73 -47 -101 l-25 -22 41
-60 c22 -34 41 -63 41 -66 0 -4 -20 -6 -44 -6 -43 0 -45 1 -86 65 -33 50 -48
65 -66 65 -23 0 -24 -3 -24 -65 l0 -65 -40 0 -40 0 0 190 0 190 95 0 c60 0
108 -5 130 -14z m-1398 -545 c22 -11 53 -59 53 -81 0 -5 -17 -10 -38 -10 -26
0 -41 6 -50 20 -9 14 -23 20 -50 20 -41 0 -62 -14 -62 -42 0 -21 19 -32 86
-47 28 -7 65 -21 82 -31 61 -37 50 -140 -19 -176 -43 -22 -135 -22 -177 0 -29
15 -72 68 -72 89 0 4 19 7 43 7 31 0 45 -5 55 -20 18 -29 107 -29 122 1 17 31
-10 54 -82 69 -82 18 -119 50 -120 106 0 48 14 79 45 96 50 27 134 27 184 -1z
m367 -165 c36 -101 66 -187 66 -191 0 -3 -19 -5 -42 -3 -38 3 -43 6 -52 36
l-9 32 -78 0 -77 0 -12 -35 c-11 -33 -14 -35 -56 -35 -43 0 -43 0 -33 28 6 15
33 88 59 162 75 211 62 190 118 190 l49 0 67 -184z m176 29 l0 -155 85 0 85 0
0 -35 0 -35 -125 0 -125 0 0 190 0 190 40 0 40 0 0 -155z m290 26 c0 -115 2
-131 21 -155 14 -18 30 -26 50 -26 72 0 89 38 89 203 l0 107 41 0 41 0 -4
-137 c-2 -117 -6 -143 -23 -173 -29 -49 -75 -73 -142 -73 -61 0 -93 18 -130
73 -21 30 -23 44 -23 171 l0 139 40 0 40 0 0 -129z m526 110 c57 -26 86 -76
91 -159 4 -56 1 -74 -19 -112 -35 -67 -86 -90 -205 -90 l-93 0 0 190 0 190 93
0 c68 0 103 -5 133 -19z"/>
<path d="M3663 2868 c-23 -11 -53 -73 -53 -109 0 -29 27 -90 48 -105 9 -7 34
-14 55 -14 46 0 82 33 91 85 21 108 -55 185 -141 143z"/>
<path d="M3284 2866 c-3 -8 -4 -31 -2 -52 3 -37 5 -39 41 -42 74 -6 117 56 65
92 -28 20 -97 21 -104 2z"/>
<path d="M2255 2253 c-11 -32 -21 -64 -23 -70 -2 -9 11 -13 42 -13 32 0 46 4
46 13 0 17 -31 110 -39 120 -4 4 -16 -19 -26 -50z"/>
<path d="M3240 2219 l0 -122 51 5 c68 7 100 38 106 105 7 82 -39 133 -123 133
l-34 0 0 -121z"/>
</g>
</svg>
